<?xml version="1.0" standalone="no"?>
<!DOCTYPE svg PUBLIC "-//W3C//DTD SVG 20010904//EN"
 "http://www.w3.org/TR/2001/REC-SVG-20010904/DTD/svg10.dtd">
<svg version="1.0" xmlns="http://www.w3.org/2000/svg"
 width="300.000000pt" height="300.000000pt" viewBox="0 0 300.000000 300.000000"
 preserveAspectRatio="xMidYMid meet">
<metadata>
Created by potrace 1.14, written by Peter Selinger 2001-2017
</metadata>
<g transform="translate(0.000000,300.000000) scale(0.100000,-0.100000)"
fill="#000000" stroke="none">
<path d="M1030 2987 c-14 -7 -65 -35 -115 -61 -87 -47 -146 -78 -305 -163
-184 -99 -232 -124 -339 -179 -134 -69 -191 -121 -235 -214 l-31 -65 0 -850 0
-850 27 -45 c14 -25 37 -54 50 -65 104 -90 296 -147 498 -147 211 0 321 32
363 107 8 14 11 220 12 695 2 720 3 744 51 847 41 86 113 150 244 218 41 21
145 79 230 128 85 49 206 118 267 154 118 68 150 100 160 158 12 73 -48 137
-130 139 -42 1 -56 -6 -247 -117 -19 -11 -55 -31 -80 -45 -25 -14 -96 -54
-158 -89 -396 -224 -643 -352 -746 -387 -82 -29 -185 -40 -224 -25 -49 19 -62
109 -25 171 18 30 33 39 253 155 63 33 144 76 180 95 36 20 100 54 144 77 l78
43 27 -32 c54 -64 156 -69 216 -10 29 30 30 32 32 150 3 131 -6 166 -51 196
-34 22 -115 28 -146 11z"/>
<path d="M2059 2546 c-157 -87 -209 -116 -341 -193 -70 -40 -131 -73 -134 -73
-4 0 -15 -6 -23 -14 -9 -7 -41 -27 -71 -43 -249 -137 -311 -186 -362 -291
l-33 -67 0 -790 c0 -767 1 -791 20 -830 43 -88 166 -172 315 -215 57 -17 108
-23 210 -25 220 -5 273 15 620 232 474 297 717 460 729 491 8 19 11 253 9 807
-3 770 -3 781 -23 802 -12 12 -38 30 -60 39 -70 29 -102 16 -336 -136 -603
-391 -745 -478 -850 -516 -172 -63 -333 -58 -359 11 -16 43 -2 107 32 143 27
27 226 148 428 260 25 13 50 28 55 32 6 4 30 19 55 32 25 14 59 34 77 44 l32
19 28 -27 c36 -34 75 -49 116 -44 103 14 125 48 125 199 0 124 -11 157 -61
183 -61 32 -96 27 -198 -30z m669 -911 l-1 -114 -126 -83 c-69 -45 -217 -142
-329 -216 -112 -73 -209 -135 -215 -138 -9 -3 -12 26 -11 107 l0 112 40 28
c21 15 113 76 204 135 91 59 226 147 300 196 74 48 135 88 136 88 2 0 2 -52 2
-115z"/>
</g>
</svg>
